<svg xmlns="http://www.w3.org/2000/svg" xmlns:xlink="http://www.w3.org/1999/xlink" viewBox="0 0 512 512">
  <g>
    <path d="M117.583,354.544C135.5,392.5,169.713,401.446,200,407.5c60.033,12,110.773,4.892,164.229-18.483c12.484-5.46,35.271-17.517,30.614-34.02c31.05,6.647,62.845,10.952,92.935,20.603c29.926,9.592,32.771,31.09,4.915,46.082c-34.159,18.38-70.725,35.442-108.314,43.643c-102.824,22.438-205.775,19.167-306.155-15.455c-21.39-7.38-42.35-17.732-61.24-30.162c-24.225-15.931-22.48-33.905,4.885-42.84C52.813,366.77,85.428,361.8,117.583,354.544z"/>
    <polygon points="249.443,300.77 194.583,294.26 189.373,338.145 244.228,344.657"/>
    <path d="M184.043,289.322l0.875-7.343l76.795,9.122l-0.885,7.473c29.672,0,74.672-7.074,90.672-14.574c-16.735-55.149-35.967-115.685-53.151-172.325c26.439,12.92,48.904,23.9,74.1,36.215c0.83-7.072-52.235-76.857-79.75-108.567c-3.655-4.22-11.36-6.853-17.22-6.895c-27.291-0.205-59.46,38.945-71.311,82.122c-2.175,7.925-6.975,31.83-7.78,36.42c-3.23,18.44,33.145-2.762,43.38,10.73c-11.13,0-22.095-1.757-32.1,0.583c-7.365,1.723-17.77,7.585-19.49,13.67c-9.99,35.4-19.47,70.953-28.57,106.595C167.693,285.18,175.823,287.504,184.043,289.322z"/>
    <path d="M365.073,331.584C347.5,340.5,294,354.544,254.628,350.742l-0.735,6.188l-76.795-9.118l0.445-3.76c-10.5-2.314-20.835-5.34-31.105-8.712c-0.795,3.252-3.815,6.719-2.395,9.742C167.5,395,300,392.5,374.083,361.287C371.073,351.362,368.073,341.462,365.073,331.584z"/>
  </g>
</svg>